<?xml version="1.0" standalone="no"?>
<!DOCTYPE svg PUBLIC "-//W3C//DTD SVG 20010904//EN"
 "http://www.w3.org/TR/2001/REC-SVG-20010904/DTD/svg10.dtd">
<svg version="1.0" xmlns="http://www.w3.org/2000/svg"
 width="1280.000000pt" height="1280.000000pt" viewBox="0 0 1280.000000 1280.000000"
 preserveAspectRatio="xMidYMid meet">
<g transform="translate(0.000000,1280.000000) scale(0.100000,-0.100000)"
fill="#000000" stroke="none">
<path d="M6625 11164 c-57 -21 -109 -76 -154 -163 -22 -42 -126 -265 -232
-496 -106 -231 -221 -483 -256 -560 -36 -77 -86 -187 -113 -245 -84 -183 -163
-356 -315 -685 -81 -176 -169 -367 -195 -425 -71 -157 -250 -546 -505 -1100
-577 -1255 -555 -1202 -540 -1268 3 -16 17 -39 30 -52 l23 -22 760 12 c799 12
799 12 885 -31 48 -25 74 -75 59 -115 -6 -16 -92 -245 -192 -509 -100 -264
-197 -520 -215 -570 -18 -49 -108 -288 -200 -530 -176 -467 -448 -1187 -525
-1395 -26 -69 -109 -289 -184 -490 -230 -609 -288 -772 -288 -816 -1 -42 7
-64 22 -64 9 0 676 888 1919 2555 144 193 283 379 311 415 27 36 145 193 262
350 117 157 525 704 908 1215 943 1260 874 1163 868 1227 l-3 33 -105 6 c-58
4 -474 7 -925 8 -874 1 -1015 5 -1015 28 0 16 4 22 202 323 85 129 202 307
260 395 98 150 239 364 486 740 58 88 175 266 260 395 86 129 192 291 237 360
45 69 171 260 280 425 455 689 580 882 592 915 18 51 16 94 -6 121 l-19 24
-1169 2 c-1014 2 -1173 0 -1208 -13z"/>
<path d="M5461 10515 c-521 -134 -1125 -445 -1561 -804 -812 -671 -1350 -1545
-1541 -2500 -26 -133 -38 -221 -69 -513 -27 -260 0 -713 64 -1058 194 -1044
749 -1988 1546 -2629 127 -103 269 -197 309 -206 40 -8 93 16 124 57 14 18 44
72 65 119 117 254 159 491 113 638 -30 96 -65 144 -169 235 -402 348 -693 750
-907 1251 -213 498 -305 1103 -246 1620 101 880 561 1711 1251 2260 52 41 186
136 297 210 346 232 536 438 702 765 70 137 101 222 140 378 38 155 46 212 29
211 -7 0 -73 -15 -147 -34z"/>
<path d="M8904 9841 c-40 -24 -78 -71 -207 -256 -123 -177 -160 -241 -181
-314 -35 -119 -14 -166 121 -271 199 -155 443 -412 605 -636 190 -266 364
-605 472 -924 237 -704 247 -1470 26 -2132 -209 -625 -611 -1177 -1159 -1592
-359 -272 -734 -460 -1164 -585 -261 -76 -492 -110 -817 -121 -224 -7 -251
-10 -317 -32 -151 -53 -295 -180 -433 -383 -85 -126 -180 -304 -180 -340 0
-28 29 -61 65 -75 110 -42 445 -74 775 -75 441 0 743 38 1145 147 971 261
1792 826 2362 1626 425 597 688 1279 785 2043 17 139 18 787 0 919 -70 525
-193 943 -407 1386 -196 407 -411 725 -718 1062 -176 194 -534 508 -634 557
-42 20 -101 19 -139 -4z"/>
</g>
</svg>
