<?xml version="1.0" encoding="UTF-8"?>
<svg version="1.1" xmlns="http://www.w3.org/2000/svg" width="512" height="512">
<path d="M0 0 C0.91321345 -0.00445784 1.8264269 -0.00891569 2.76731348 -0.01350862 C3.76690513 -0.01332426 4.76649678 -0.01313989 5.79637909 -0.01294994 C6.86122072 -0.01662663 7.92606235 -0.02030332 9.0231719 -0.02409142 C12.60346293 -0.03513434 16.18372494 -0.03897318 19.76403046 -0.04278088 C22.32639915 -0.04904514 24.88876694 -0.05569191 27.45113373 -0.0626936 C35.14999798 -0.08192553 42.84885713 -0.09252334 50.54773927 -0.10142139 C54.17633032 -0.10580741 57.80491992 -0.11117348 61.43350983 -0.11641026 C73.50168047 -0.13342266 85.56985021 -0.1479151 97.63803101 -0.155159 C100.76889802 -0.15706879 103.89976503 -0.15898914 107.03063202 -0.16094494 C108.19782903 -0.16167055 108.19782903 -0.16167055 109.38860577 -0.16241082 C121.98355032 -0.17070464 134.57839969 -0.19603051 147.17330271 -0.22852562 C160.1143912 -0.26164064 173.05543141 -0.27961185 185.99656248 -0.28280324 C193.25835033 -0.28496445 200.51999946 -0.29365564 207.78174591 -0.31926441 C214.61733051 -0.343315 221.45266227 -0.34676924 228.28828049 -0.33650303 C230.79239099 -0.33600808 233.29651386 -0.34231642 235.8005867 -0.35605907 C239.22965611 -0.37381981 242.65783537 -0.3666503 246.08690643 -0.35352612 C247.06865231 -0.36449536 248.05039819 -0.37546461 249.06189394 -0.38676625 C260.09366014 -0.28542283 269.84295815 3.25538473 278.44957733 10.13422108 C279.12633514 10.6627367 279.80309296 11.19125233 280.50035858 11.73578358 C289.29680198 19.49031814 295.51784625 32.48019463 296.44957733 44.13422108 C296.82262373 55.07831058 296.0209059 65.64064961 294.52867889 76.47919178 C294.32043523 78.04966459 294.11311657 79.62026028 293.90663433 81.19096565 C293.34684166 85.42944033 292.77430166 89.66610319 292.19941401 93.90255308 C291.58854969 98.42172942 290.99000109 102.94253805 290.39002228 107.46317005 C289.23630292 116.14200327 288.07195846 124.81937589 286.90356988 133.49624515 C285.4313627 144.43220504 283.9710127 155.36974246 282.51085663 166.30731678 C281.98247458 170.2644039 281.45400511 174.22147935 280.9254837 178.17854786 C280.79537877 179.15272307 280.66527384 180.12689828 280.53122634 181.13059396 C279.61687215 187.97537772 278.70025489 194.81985629 277.78287506 201.66423512 C275.08568175 221.79457231 272.41531288 241.92757375 269.83095169 262.07274532 C269.40168947 265.41797779 268.97085141 268.76300329 268.5394516 272.1079607 C267.42605311 280.74543774 266.31540767 289.3831065 265.23152256 298.02434254 C264.81170524 301.35064733 264.38178935 304.67558603 263.94885826 308.00020695 C263.75957298 309.47092308 263.57460729 310.94220425 263.39480019 312.41410923 C261.90265449 324.61583261 259.48645696 334.64364229 251.44957733 344.13422108 C251.00227264 344.71301014 250.55496796 345.2917992 250.09410858 345.88812733 C247.17017693 349.62176313 244.91064747 351.64200705 240.26207733 352.57172108 C239.66395233 352.75734608 239.06582733 352.94297108 238.44957733 353.13422108 C238.11957733 354.12422108 237.78957733 355.11422108 237.44957733 356.13422108 C236.45957733 356.13422108 235.46957733 356.13422108 234.44957733 356.13422108 C231.35030914 356.45621074 231.35030914 356.45621074 228.44957733 357.13422108 C228.11957733 357.79422108 227.78957733 358.45422108 227.44957733 359.13422108 C201.85813949 359.22778992 176.26672741 359.29826178 150.67515278 359.34146976 C138.79171584 359.36206797 126.90838537 359.39013616 115.02501678 359.43597889 C104.6637614 359.47593057 94.30258316 359.5016738 83.94125289 359.51057506 C78.45835833 359.51577568 72.97568442 359.52794186 67.49286079 359.5571413 C62.32431329 359.58444208 57.15607576 359.59263657 51.987463 359.5866518 C50.09815151 359.58774551 48.20882886 359.59561149 46.31958008 359.61104298 C35.60954451 359.69417706 26.58246734 359.03503571 16.44957733 355.13422108 C15.38436261 354.80222832 14.31914789 354.47023556 13.22165394 354.12818241 C10.44957733 353.13422108 10.44957733 353.13422108 8.44957733 351.13422108 C7.78957733 350.80422108 7.12957733 350.47422108 6.44957733 350.13422108 C4.34177469 347.89392798 2.41736469 345.49759456 0.44957733 343.13422108 C-0.25167267 342.35047108 -0.95292267 341.56672108 -1.67542267 340.75922108 C-6.16052112 334.48008325 -8.0164828 327.99058788 -9.15589142 320.41937733 C-9.44098195 318.11266702 -9.44098195 318.11266702 -10.55042267 316.13422108 C-10.71364999 314.40824332 -10.82938212 312.67773771 -10.92542267 310.94672108 C-11.39325326 304.24617975 -12.18808622 297.60736648 -13.05042267 290.94672108 C-13.18110138 289.91845203 -13.31178009 288.89018299 -13.44641876 287.83075428 C-13.57355255 286.86484364 -13.70068634 285.89893299 -13.83167267 284.90375233 C-13.9457547 284.03339344 -14.05983673 283.16303455 -14.17737579 282.26630116 C-14.45332376 280.08978004 -14.45332376 280.08978004 -15.55042267 278.13422108 C-15.75774348 276.07541023 -15.91735404 274.01166097 -16.05042267 271.94672108 C-16.06298629 263.36510173 -16.06298629 263.36510173 -19.55042267 256.13422108 C-18.89042267 256.13422108 -18.23042267 256.13422108 -17.55042267 256.13422108 C-18.09729851 252.18257759 -18.64875294 248.23160311 -19.2044754 244.28119373 C-19.39291354 242.93696923 -19.58009527 241.59256798 -19.76599884 240.24799061 C-20.0332883 238.31637879 -20.30545849 236.38544432 -20.57776642 234.45453358 C-20.82127838 232.71067371 -20.82127838 232.71067371 -21.06970978 230.93158436 C-21.40198097 228.1900456 -21.40198097 228.1900456 -22.55042267 226.13422108 C-22.52979767 225.14422108 -22.50917267 224.15422108 -22.48792267 223.13422108 C-22.20661136 220.01654893 -22.20661136 220.01654893 -24.55042267 218.13422108 C-23.89042267 218.13422108 -23.23042267 218.13422108 -22.55042267 218.13422108 C-22.85864888 215.84197568 -23.1721314 213.55043653 -23.48792267 211.25922108 C-23.66194611 209.9830492 -23.83596954 208.70687733 -24.01526642 207.39203358 C-24.36475494 204.25862653 -24.36475494 204.25862653 -25.55042267 202.13422108 C-25.71364999 200.40824332 -25.82938212 198.67773771 -25.92542267 196.94672108 C-26.39325326 190.24617975 -27.18808622 183.60736648 -28.05042267 176.94672108 C-28.18110138 175.91845203 -28.31178009 174.89018299 -28.44641876 173.83075428 C-28.57355255 172.86484364 -28.70068634 171.89893299 -28.83167267 170.90375233 C-28.9457547 170.03339344 -29.05983673 169.16303455 -29.17737579 168.26630116 C-29.45332376 166.08978004 -29.45332376 166.08978004 -30.55042267 164.13422108 C-30.55042267 162.46755441 -30.55042267 160.80088774 -30.55042267 159.13422108 C-30.88042267 158.14422108 -31.21042267 157.15422108 -31.55042267 156.13422108 C-31.61979329 153.90603667 -31.63499351 151.67587583 -31.61292267 149.44672108 C-31.60389923 148.26722889 -31.59487579 147.0877367 -31.58557892 145.87250233 C-31.57397736 144.96886951 -31.56237579 144.0652367 -31.55042267 143.13422108 C-32.54042267 142.80422108 -33.53042267 142.47422108 -34.55042267 142.13422108 C-33.89042267 142.13422108 -33.23042267 142.13422108 -32.55042267 142.13422108 C-32.64130157 141.50443348 -32.73218048 140.87464588 -32.82581329 140.22577381 C-33.23906029 137.34178662 -33.64479558 134.45678945 -34.05042267 131.57172108 C-34.19350861 130.58107655 -34.33659454 129.59043201 -34.48401642 128.56976795 C-35.2096289 123.36954519 -35.72715678 118.3846969 -35.55042267 113.13422108 C-36.21042267 112.80422108 -36.87042267 112.47422108 -37.55042267 112.13422108 C-37.22042267 109.82422108 -36.89042267 107.51422108 -36.55042267 105.13422108 C-37.21042267 104.80422108 -37.87042267 104.47422108 -38.55042267 104.13422108 C-38.92932892 101.75531483 -38.92932892 101.75531483 -39.11292267 98.57172108 C-39.18768829 97.41027576 -39.26245392 96.24883045 -39.33948517 95.05218983 C-39.48851551 92.28408916 -39.62866918 89.51636146 -39.76136017 86.74750233 C-39.79930695 86.02184071 -39.83725372 85.29617908 -39.8763504 84.54852772 C-39.9501385 83.11716771 -40.01490544 81.68531129 -40.07019806 80.25311756 C-40.157856 78.5415698 -40.34514788 76.83567396 -40.55042267 75.13422108 C-41.21042267 74.80422108 -41.87042267 74.47422108 -42.55042267 74.13422108 C-42.92932892 71.04437733 -42.92932892 71.04437733 -43.11292267 67.19672108 C-43.17620008 62.50070166 -43.17620008 62.50070166 -44.55042267 58.13422108 C-44.62158649 55.76019607 -44.63451352 53.38421431 -44.61292267 51.00922108 C-44.60389923 49.72789295 -44.59487579 48.44656483 -44.58557892 47.12640858 C-44.57397736 46.1389867 -44.56237579 45.15156483 -44.55042267 44.13422108 C-43.89042267 44.13422108 -43.23042267 44.13422108 -42.55042267 44.13422108 C-42.55042267 42.81422108 -42.55042267 41.49422108 -42.55042267 40.13422108 C-41.199295 27.10416796 -33.14754288 16.44696833 -23.55042267 8.13422108 C-22.89042267 7.47422108 -22.23042267 6.81422108 -21.55042267 6.13422108 C-20.56042267 5.80422108 -19.57042267 5.47422108 -18.55042267 5.13422108 C-16.03574819 4.12667204 -13.52936586 3.09994136 -11.02307892 2.07172108 C-7.26037526 0.64510357 -4.02706642 0.00914198 0 0 Z M106.44957733 69.13422108 C106.44957733 69.46422108 106.44957733 69.79422108 106.44957733 70.13422108 C109.41957733 70.13422108 112.38957733 70.13422108 115.44957733 70.13422108 C115.44957733 69.80422108 115.44957733 69.47422108 115.44957733 69.13422108 C112.47957733 69.13422108 109.50957733 69.13422108 106.44957733 69.13422108 Z M116.44957733 69.13422108 C116.44957733 69.46422108 116.44957733 69.79422108 116.44957733 70.13422108 C119.08957733 70.13422108 121.72957733 70.13422108 124.44957733 70.13422108 C124.44957733 69.80422108 124.44957733 69.47422108 124.44957733 69.13422108 C121.80957733 69.13422108 119.16957733 69.13422108 116.44957733 69.13422108 Z M130.44957733 69.13422108 C130.44957733 69.46422108 130.44957733 69.79422108 130.44957733 70.13422108 C140.01957733 70.13422108 149.58957733 70.13422108 159.44957733 70.13422108 C159.44957733 69.80422108 159.44957733 69.47422108 159.44957733 69.13422108 C149.87957733 69.13422108 140.30957733 69.13422108 130.44957733 69.13422108 Z M104.44957733 69.13422108 C104.44957733 71.77422108 104.44957733 74.41422108 104.44957733 77.13422108 C103.77153046 76.90605701 103.09348358 76.67789295 102.39488983 76.44281483 C93.44042907 73.67710188 86.69358831 73.358329 78.13707733 77.44672108 C74.58107948 79.39892519 71.40755701 81.33192454 68.44957733 84.13422108 C67.88110077 84.65629139 67.31262421 85.1783617 66.72692108 85.71625233 C58.49646074 94.01216365 49.45765352 108.35916735 49.13707733 120.32172108 C49.19371137 125.67363808 50.13033795 129.86391024 53.44957733 134.13422108 C57.90812862 138.27244927 63.26256048 140.94469617 68.57457733 143.82172108 C69.48078827 144.31994373 70.38699921 144.81816639 71.32067108 145.3314867 C78.68794243 149.35347114 84.78770712 151.6783675 93.19957733 149.38422108 C103.78969977 143.50081972 108.63450098 131.44816871 114.26207733 121.19672108 C114.94857624 119.95368914 115.63542306 118.71084929 116.32262421 117.46820545 C120.74200172 109.47219949 120.74200172 109.47219949 124.44957733 101.13422108 C125.10957733 101.13422108 125.76957733 101.13422108 126.44957733 101.13422108 C126.7259201 101.86560291 127.00226288 102.59698475 127.28697968 103.35052967 C128.37449832 105.95445399 129.60149192 108.25685795 131.05113983 110.67328358 C131.54098358 111.5008617 132.03082733 112.32843983 132.53551483 113.18109608 C133.56704854 114.90904594 134.60092912 116.63559681 135.63707733 118.36078358 C136.12434296 119.18578358 136.61160858 120.01078358 137.11363983 120.86078358 C137.56175018 121.60924549 138.00986053 122.35770741 138.47154999 123.12884998 C139.44957733 125.13422108 139.44957733 125.13422108 139.44957733 128.13422108 C137.88903046 129.48456287 137.88903046 129.48456287 135.73082733 130.83343983 C134.96383514 131.32006092 134.19684296 131.80668201 133.40660858 132.3080492 C132.59578827 132.80756092 131.78496796 133.30707264 130.94957733 133.82172108 C130.13875702 134.33283436 129.32793671 134.84394764 128.49254608 135.3705492 C126.48399806 136.63475296 124.46973707 137.88868767 122.44957733 139.13422108 C122.77957733 139.79422108 123.10957733 140.45422108 123.44957733 141.13422108 C131.48152775 141.20370425 139.51335278 141.25702347 147.54552937 141.28965759 C151.27512788 141.30531966 155.00452091 141.32656737 158.73400116 141.36053944 C162.33257507 141.39311427 165.93095122 141.41107001 169.52966118 141.41885281 C170.90321911 141.42439975 172.27676611 141.4352316 173.65023994 141.45141125 C175.5725844 141.47315783 177.49512748 141.47444624 179.41759491 141.47479725 C181.05973717 141.48479 181.05973717 141.48479 182.73505402 141.49498463 C185.44764108 141.36053535 185.44764108 141.36053535 187.20328522 139.8138628 C189.22532543 137.08873676 190.86575403 134.15643774 192.51207733 131.19672108 C192.86334686 130.57603748 193.21461639 129.95535389 193.57653046 129.3158617 C194.91303804 126.94349757 196.23337151 124.57088874 197.44176483 122.13031483 C199.31844643 118.41332144 201.49735884 114.85116068 203.61559296 111.26703358 C205.37128064 108.24244778 206.72308378 105.55347876 207.44957733 102.13422108 C208.00645233 101.45359608 208.56332733 100.77297108 209.13707733 100.07172108 C214.91557081 92.75023119 214.91557081 92.75023119 217.44957733 84.13422108 C214.90316716 85.08003057 212.5805532 86.05376447 210.26207733 87.47797108 C206.82016906 89.50487261 203.26517209 91.15869965 199.63707733 92.82172108 C198.94420624 93.14205311 198.25133514 93.46238514 197.53746796 93.7924242 C195.8426651 94.57554 194.14628069 95.35523149 192.44957733 96.13422108 C192.19821014 95.43297108 191.94684296 94.73172108 191.68785858 94.00922108 C190.29912277 90.7849007 188.5849358 88.05414658 186.63707733 85.13422108 C185.97063202 84.12359608 185.30418671 83.11297108 184.61754608 82.07172108 C180.41567428 76.37837406 175.64620435 71.40421408 168.44957733 70.13422108 C166.11863199 69.78457928 163.78552971 69.44867621 161.44957733 69.13422108 C161.44957733 69.46422108 161.44957733 69.79422108 161.44957733 70.13422108 C153.65364068 70.32745948 145.85746134 70.50495234 138.06090546 70.67133045 C135.40685093 70.72984709 132.7528743 70.79201204 130.09899139 70.85785389 C126.29151845 70.95169004 122.48396111 71.03254218 118.67613983 71.11078358 C117.48340454 71.14297993 116.29066925 71.17517628 115.06179047 71.20834827 C113.96080017 71.22852009 112.85980988 71.2486919 111.72545624 71.26947498 C110.75282837 71.2916811 109.7802005 71.31388721 108.77809906 71.33676624 C106.44957733 71.13422108 106.44957733 71.13422108 104.44957733 69.13422108 Z M196.51207733 142.82172108 C195.49242889 143.34121326 194.47278046 143.86070545 193.42223358 144.39593983 C190.51624614 146.09523603 188.05272602 148.00991245 185.44957733 150.13422108 C184.31520233 150.73234608 183.18082733 151.33047108 182.01207733 151.94672108 C177.09325776 154.67462538 173.81322128 158.71685225 171.07457733 163.57172108 C168.91732484 172.41645628 171.68413121 178.47215426 176.16539764 186.0267992 C178.16585938 189.20930593 180.20465903 192.36325181 182.26207733 195.50922108 C183.64369152 197.64196636 185.02520271 199.77477836 186.40660858 201.90765858 C187.07643768 202.93729725 187.74626678 203.96693592 188.43639374 205.02777576 C191.47118722 209.71061742 194.46293495 214.42056872 197.44957733 219.13422108 C196.8097995 219.12398914 196.17002167 219.11375721 195.51085663 219.10321522 C191.3430185 219.04484467 187.5204503 219.11650284 183.44957733 220.13422108 C177.78291066 220.13422108 172.116244 220.13422108 166.44957733 220.13422108 C166.38899139 218.83226795 166.32840546 217.53031483 166.26598358 216.18890858 C166.18153172 214.46233709 166.09688607 212.73577507 166.01207733 211.00922108 C165.97276093 210.15328358 165.93344452 209.29734608 165.89293671 208.41547108 C165.66801331 203.91700315 165.3141685 199.566159 164.44957733 195.13422108 C164.11957733 196.45422108 163.78957733 197.77422108 163.44957733 199.13422108 C161.96457733 198.63922108 161.96457733 198.63922108 160.44957733 198.13422108 C153.64003785 210.49977548 146.93919385 222.91231429 140.46031952 235.45477772 C139.9927121 236.35832996 139.52510468 237.26188221 139.04332733 238.19281483 C138.60504608 239.04472401 138.16676483 239.89663319 137.71520233 240.7743578 C136.57103745 242.90774857 135.33215606 244.93442723 134.04332733 246.98187733 C132.22036313 250.58759328 132.35166603 251.38985995 133.44957733 255.13422108 C134.47657608 257.17871832 134.47657608 257.17871832 135.82848358 259.11859608 C136.5805307 260.25591175 136.5805307 260.25591175 137.34777069 261.4162035 C137.89699188 262.2306493 138.44621307 263.0450951 139.01207733 263.88422108 C140.19287841 265.6660357 141.37250954 267.44862604 142.55113983 269.23187733 C143.1805246 270.18078846 143.80990936 271.12969959 144.45836639 272.10736561 C147.99034324 277.47635149 151.43418864 282.90167122 154.88707733 288.32172108 C158.51894011 294.02191842 162.15366019 299.72016115 165.85973358 305.37250233 C166.33676727 306.10122547 166.81380096 306.82994862 167.30529022 307.58075428 C167.68290497 308.09339832 168.06051971 308.60604237 168.44957733 309.13422108 C168.77957733 309.13422108 169.10957733 309.13422108 169.44957733 309.13422108 C169.44957733 299.89422108 169.44957733 290.65422108 169.44957733 281.13422108 C172.06895233 281.01047108 174.68832733 280.88672108 177.38707733 280.75922108 C187.82771014 280.15598451 196.30575273 279.37317628 204.44957733 272.13422108 C208.65134749 267.20414409 211.66290488 262.38757466 213.44957733 256.13422108 C213.88777802 255.55156483 214.3259787 254.96890858 214.77745819 254.36859608 C216.82253478 251.6358554 218.34901779 248.77209197 219.95348358 245.75922108 C220.27743607 245.1528783 220.60138855 244.54653553 220.93515778 243.92181873 C221.96394044 241.99427574 222.98800438 240.0642696 224.01207733 238.13422108 C224.70383893 236.83718833 225.39589335 235.54031171 226.08824921 234.24359608 C227.88290822 230.87774745 229.67479997 227.5106132 231.44957733 224.13422108 C231.84910614 223.4252367 232.24863495 222.71625233 232.66027069 221.98578358 C233.71100882 219.85641632 233.71100882 219.85641632 233.44957733 216.13422108 C232.16607407 213.86664543 232.16607407 213.86664543 230.44957733 212.13422108 C229.78957733 212.13422108 229.12957733 212.13422108 228.44957733 212.13422108 C228.44957733 211.47422108 228.44957733 210.81422108 228.44957733 210.13422108 C229.04512421 209.88156483 229.64067108 209.62890858 230.25426483 209.36859608 C232.71930837 207.98255736 233.89939062 206.64703873 235.57457733 204.38422108 C236.07215546 203.72937733 236.56973358 203.07453358 237.08238983 202.39984608 C241.6772032 194.78558392 241.52601134 186.01264121 239.65660858 177.54047108 C238.16352034 172.46053867 236.82239417 168.26456897 233.44957733 164.13422108 C232.43769838 162.4747396 231.43692274 160.80841546 230.44957733 159.13422108 C229.36273636 157.50395962 228.25877015 155.88270252 227.07457733 154.32172108 C225.44957733 152.13422108 225.44957733 152.13422108 223.57457733 149.13422108 C220.39322491 144.6429 216.81048959 141.60847195 211.44957733 140.13422108 C209.77414758 140.42027006 208.10572391 140.75203341 206.44957733 141.13422108 C205.56785858 140.82097889 205.56785858 140.82097889 204.66832733 140.50140858 C201.34417509 139.95128479 199.45932996 141.2867711 196.51207733 142.82172108 Z M119.44957733 141.13422108 C119.11957733 141.79422108 118.78957733 142.45422108 118.44957733 143.13422108 C140.55957733 143.13422108 162.66957733 143.13422108 185.44957733 143.13422108 C185.44957733 142.80422108 185.44957733 142.47422108 185.44957733 142.13422108 C152.77957733 141.63922108 152.77957733 141.63922108 119.44957733 141.13422108 Z M0.44957733 149.13422108 C4.61761187 152.50804719 4.61761187 152.50804719 9.01207733 155.19672108 C11.72696926 156.72693289 14.01180482 158.2297113 16.44957733 160.13422108 C17.65489818 161.00429502 18.8635039 161.86982853 20.07457733 162.73187733 C20.70621796 163.18184071 21.33785858 163.63180408 21.98863983 164.09540272 C22.71180389 164.60961781 22.71180389 164.60961781 23.44957733 165.13422108 C15.44957733 181.13422108 15.44957733 181.13422108 14.360466 183.24261951 C11.34175893 189.51143281 12.17283991 197.03946059 14.00817108 203.52484608 C17.03487328 211.10390525 21.45197471 217.98742839 25.60973358 224.9877367 C29.07616599 230.9159985 32.37791172 236.9365563 35.69957733 242.94672108 C36.374196 244.16435346 37.04899637 245.38188518 37.72399139 246.59930897 C39.30048843 249.44356207 40.8756601 252.28853987 42.44957733 255.13422108 C46.57931361 254.56682239 46.57931361 254.56682239 50.44957733 253.13422108 C50.66871796 253.90765858 50.88785858 254.68109608 51.11363983 255.47797108 C54.29341479 265.92210998 57.97540204 272.12992543 67.39879608 277.81000233 C76.73302248 281.86160636 85.53721034 282.60628333 95.63707733 282.50922108 C96.85588593 282.52082264 98.07469452 282.5324242 99.33043671 282.54437733 C106.89271598 282.51975786 113.12192432 282.19198363 119.47301483 277.70453358 C126.46576144 270.22674097 126.6470968 262.22432117 126.69957733 252.38422108 C126.72020233 251.43289295 126.74082733 250.48156483 126.76207733 249.50140858 C126.8039229 241.8645927 125.83928689 234.85328267 121.01207733 228.69672108 C117.64329775 225.32794149 116.1003994 224.16723752 111.32457733 224.07172108 C110.37582733 224.09234608 109.42707733 224.11297108 108.44957733 224.13422108 C107.78957733 223.80422108 107.12957733 223.47422108 106.44957733 223.13422108 C104.99920626 223.04472691 103.54479104 223.01663668 102.09166718 223.02069569 C101.1908844 223.02077122 100.29010162 223.02084675 99.3620224 223.02092457 C98.3880249 223.02608585 97.4140274 223.03124714 96.41051483 223.03656483 C95.41452271 223.03797977 94.41853058 223.03939472 93.39235687 223.04085255 C90.2030668 223.04646172 87.01384627 223.05901578 83.82457733 223.07172108 C81.66572418 223.0767349 79.50686992 223.08129801 77.34801483 223.08539295 C72.04851183 223.09643412 66.74904955 223.1131812 61.44957733 223.13422108 C61.99227264 222.19320545 62.53496796 221.25218983 63.09410858 220.28265858 C63.81685249 219.02489645 64.53950381 217.76708111 65.26207733 216.50922108 C65.61850311 215.89176014 65.97492889 215.2742992 66.34215546 214.63812733 C70.3841967 207.61506929 70.3841967 207.61506929 73.44957733 200.13422108 C75.01207733 198.44672108 75.01207733 198.44672108 76.44957733 197.13422108 C81.7790446 198.67874822 86.36488076 201.10552827 91.19957733 203.75922108 C92.71314686 204.58850455 94.22868202 205.4142137 95.74645233 206.23578358 C96.40999725 206.60010487 97.07354218 206.96442616 97.75719452 207.33978748 C99.4397249 208.27586407 99.4397249 208.27586407 101.44957733 208.13422108 C99.38265925 202.81928886 96.8477489 198.04637629 93.94957733 193.13422108 C92.00600806 189.84003587 90.15903199 186.5531304 88.44957733 183.13422108 C87.29377512 181.1279229 86.12614893 179.12841023 84.94957733 177.13422108 C83.00600806 173.84003587 81.15903199 170.5531304 79.44957733 167.13422108 C78.29377512 165.1279229 77.12614893 163.12841023 75.94957733 161.13422108 C74.00807259 157.84353508 72.10917853 154.5763569 70.44957733 151.13422108 C69.95457733 150.14422108 69.95457733 150.14422108 69.44957733 149.13422108 C46.67957733 149.13422108 23.90957733 149.13422108 0.44957733 149.13422108 Z M163.44957733 192.13422108 C164.44957733 194.13422108 164.44957733 194.13422108 164.44957733 194.13422108 Z M161.44957733 196.13422108 C162.44957733 198.13422108 162.44957733 198.13422108 162.44957733 198.13422108 Z M234.44957733 215.13422108 C235.44957733 217.13422108 235.44957733 217.13422108 235.44957733 217.13422108 Z " fill="#000000" transform="translate(129.55042266845703,110.86577892303467)"/>
<path d="M0 0 C0.84833405 -0.01283524 1.69666809 -0.02567047 2.57070923 -0.03889465 C3.48113983 -0.04628159 4.39157043 -0.05366852 5.32958984 -0.0612793 C6.27683929 -0.06935104 7.22408875 -0.07742279 8.20004272 -0.08573914 C10.20560895 -0.09955947 12.21119849 -0.11029078 14.21679688 -0.11816406 C16.25527908 -0.12965987 18.29373175 -0.15007342 20.33203125 -0.1796875 C23.28975722 -0.22264004 26.24658956 -0.23857326 29.20458984 -0.2487793 C30.10287506 -0.26628738 31.00116028 -0.28379547 31.92666626 -0.30183411 C40.35567242 -0.27339973 48.56899846 2.08047307 54.66552734 8.17700195 C57.66552734 12.52182954 57.66552734 12.52182954 57.66552734 15.17700195 C58.22929549 15.17331478 58.79306364 15.16962761 59.37391567 15.1658287 C73.12156118 15.07730958 86.86915643 15.01146665 100.61702633 14.96975327 C107.26555922 14.94890094 113.91383124 14.92062588 120.56225586 14.87524414 C126.98133425 14.83170335 133.4002147 14.8078471 139.8194294 14.79749298 C142.26538774 14.79011648 144.71133557 14.77571194 147.1572094 14.75408173 C150.58982416 14.72493937 154.02162664 14.72105062 157.4543457 14.72290039 C158.96270744 14.70132874 158.96270744 14.70132874 160.50154114 14.67932129 C168.0129161 14.72296558 174.24222115 16.24354385 180.04052734 21.2121582 C180.57677734 21.88118164 181.11302734 22.55020508 181.66552734 23.23950195 C182.22240234 23.91110352 182.77927734 24.58270508 183.35302734 25.2746582 C186.63613157 30.0332051 186.07986076 35.63927646 185.66552734 41.17700195 C183.71346326 47.52121023 178.40440298 51.94154789 172.81005859 55.28637695 C171.45384126 55.96931775 170.06301691 56.58306889 168.66552734 57.17700195 C168.66552734 57.50700195 168.66552734 57.83700195 168.66552734 58.17700195 C130.35395566 58.22273878 92.04238808 58.25800049 53.73079465 58.27913261 C49.21196852 58.28163415 44.69314245 58.28422278 40.17431641 58.28686523 C39.27466598 58.28738986 38.37501556 58.28791448 37.448103 58.28845499 C22.86419536 58.29716734 8.28030343 58.31294185 -6.30359487 58.33130755 C-21.25818766 58.34998357 -36.21277219 58.3611138 -51.16737616 58.36517894 C-60.40172592 58.36792878 -69.63603131 58.37662662 -78.87036742 58.39283489 C-85.19510894 58.40337344 -91.51982739 58.40660971 -97.84457706 58.40400471 C-101.49843609 58.40271851 -105.15221735 58.40474653 -108.8060627 58.4154129 C-112.75968429 58.42687067 -116.71320314 58.42299998 -120.6668396 58.41751099 C-121.83218935 58.42333667 -122.99753911 58.42916235 -124.19820249 58.43516457 C-125.25068666 58.43118247 -126.30317082 58.42720038 -127.38754845 58.42309761 C-128.75795912 58.42423677 -128.75795912 58.42423677 -130.15605485 58.42539895 C-132.33447266 58.17700195 -132.33447266 58.17700195 -134.33447266 56.17700195 C-135.36572266 56.01200195 -136.39697266 55.84700195 -137.45947266 55.67700195 C-143.12271357 54.23739659 -146.25942605 48.80457209 -149.33447266 44.17700195 C-151.02859517 39.09463441 -151.38413298 33.15194598 -149.58056641 28.0402832 C-147.68615928 24.61549227 -145.33687774 21.67900619 -142.33447266 19.17700195 C-141.67447266 19.17700195 -141.01447266 19.17700195 -140.33447266 19.17700195 C-140.00447266 18.18700195 -139.67447266 17.19700195 -139.33447266 16.17700195 C-133.69980419 14.98016935 -128.19343214 15.04320878 -122.46386719 15.06347656 C-121.3803447 15.06333054 -120.2968222 15.06318451 -119.1804657 15.06303406 C-115.60938495 15.06372911 -112.03835676 15.07150248 -108.46728516 15.0793457 C-105.98721342 15.08121133 -103.50714132 15.08263455 -101.02706909 15.08363342 C-94.50706969 15.08744722 -87.98709264 15.09726781 -81.46710205 15.1083374 C-74.81091738 15.1191179 -68.15472619 15.12313629 -61.49853516 15.12817383 C-48.44383813 15.13889108 -35.38915658 15.15576099 -22.33447266 15.17700195 C-22.33447266 13.52700195 -22.33447266 11.87700195 -22.33447266 10.17700195 C-21.67447266 10.17700195 -21.01447266 10.17700195 -20.33447266 10.17700195 C-20.10501953 9.57243164 -19.87556641 8.96786133 -19.63916016 8.3449707 C-17.96750828 5.56722581 -16.37226263 4.859464 -13.45947266 3.48950195 C-12.59580078 3.07313477 -11.73212891 2.65676758 -10.84228516 2.2277832 C-7.17204646 0.68994176 -3.97349948 0.05267356 0 0 Z " fill="#000000" transform="translate(238.33447265625,41.822998046875)"/>
<path d="M0 0 C85.47 0 170.94 0 259 0 C259 0.33 259 0.66 259 1 C173.53 1 88.06 1 0 1 C0 0.67 0 0.34 0 0 Z " fill="#000000" transform="translate(127,109)"/>
<path d="M0 0 C62.37 0 124.74 0 189 0 C189 0.33 189 0.66 189 1 C126.63 1 64.26 1 0 1 C0 0.67 0 0.34 0 0 Z " fill="#000000" transform="translate(162,471)"/>
<path d="M0 0 C35.97 0 71.94 0 109 0 C109 0.33 109 0.66 109 1 C73.03 1 37.06 1 0 1 C0 0.67 0 0.34 0 0 Z " fill="#000000" transform="translate(297,55)"/>
<path d="M0 0 C35.64 0 71.28 0 108 0 C108 0.33 108 0.66 108 1 C72.36 1 36.72 1 0 1 C0 0.67 0 0.34 0 0 Z " fill="#000000" transform="translate(107,55)"/>
<path d="M0 0 C13.53 0 27.06 0 41 0 C41 0.33 41 0.66 41 1 C27.47 1 13.94 1 0 1 C0 0.67 0 0.34 0 0 Z " fill="#000000" transform="translate(236,40)"/>
<path d="M0 0 C8.58 0 17.16 0 26 0 C26 0.33 26 0.66 26 1 C17.42 1 8.84 1 0 1 C0 0.67 0 0.34 0 0 Z " fill="#000000" transform="translate(212,391)"/>
<path d="M0 0 C0.33 0 0.66 0 1 0 C1 3.96 1 7.92 1 12 C0.67 12 0.34 12 0 12 C0 8.04 0 4.08 0 0 Z " fill="#000000" transform="translate(368,292)"/>
<path d="M0 0 C0.33 0 0.66 0 1 0 C1 3.63 1 7.26 1 11 C0.67 11 0.34 11 0 11 C0 7.37 0 3.74 0 0 Z " fill="#000000" transform="translate(427,157)"/>
<path d="M0 0 C0.33 0 0.66 0 1 0 C1 3.63 1 7.26 1 11 C0.67 11 0.34 11 0 11 C0 7.37 0 3.74 0 0 Z " fill="#000000" transform="translate(84,157)"/>
<path d="M0 0 C3.3 0 6.6 0 10 0 C10 0.33 10 0.66 10 1 C6.7 1 3.4 1 0 1 C0 0.67 0 0.34 0 0 Z " fill="#000000" transform="translate(305,389)"/>
<path d="M0 0 C0.33 0 0.66 0 1 0 C1 2.97 1 5.94 1 9 C0.67 9 0.34 9 0 9 C0 6.03 0 3.06 0 0 Z " fill="#000000" transform="translate(86,73)"/>
<path d="M0 0 C0.33 0 0.66 0 1 0 C1 2.31 1 4.62 1 7 C0.67 7 0.34 7 0 7 C0 4.69 0 2.38 0 0 Z " fill="#000000" transform="translate(293,313)"/>
<path d="M0 0 C2.31 0 4.62 0 7 0 C7 0.33 7 0.66 7 1 C4.69 1 2.38 1 0 1 C0 0.67 0 0.34 0 0 Z " fill="#000000" transform="translate(212,259)"/>
<path d="M0 0 C0.33 0 0.66 0 1 0 C1 1.98 1 3.96 1 6 C0.67 6 0.34 6 0 6 C0 4.02 0 2.04 0 0 Z " fill="#000000" transform="translate(425,178)"/>
<path d="M0 0 C0.33 0 0.66 0 1 0 C1 1.65 1 3.3 1 5 C0.67 5 0.34 5 0 5 C0 3.35 0 1.7 0 0 Z " fill="#000000" transform="translate(399,376)"/>
<path d="M0 0 C0.33 0 0.66 0 1 0 C1 1.65 1 3.3 1 5 C0.67 5 0.34 5 0 5 C0 3.35 0 1.7 0 0 Z " fill="#000000" transform="translate(109,353)"/>
<path d="M0 0 C0.33 0 0.66 0 1 0 C1 1.65 1 3.3 1 5 C0.67 5 0.34 5 0 5 C0 3.35 0 1.7 0 0 Z " fill="#000000" transform="translate(404,338)"/>
<path d="M0 0 C0.33 0 0.66 0 1 0 C1 1.65 1 3.3 1 5 C0.67 5 0.34 5 0 5 C0 3.35 0 1.7 0 0 Z " fill="#000000" transform="translate(407,316)"/>
<path d="M0 0 C0.33 0 0.66 0 1 0 C1 1.65 1 3.3 1 5 C0.67 5 0.34 5 0 5 C0 3.35 0 1.7 0 0 Z " fill="#000000" transform="translate(104,315)"/>
<path d="M0 0 C0.33 0 0.66 0 1 0 C1 1.65 1 3.3 1 5 C0.67 5 0.34 5 0 5 C0 3.35 0 1.7 0 0 Z " fill="#000000" transform="translate(410,293)"/>
<path d="M0 0 C0.33 0 0.66 0 1 0 C1 1.65 1 3.3 1 5 C0.67 5 0.34 5 0 5 C0 3.35 0 1.7 0 0 Z " fill="#000000" transform="translate(101,293)"/>
<path d="M0 0 C0.33 0 0.66 0 1 0 C1 1.65 1 3.3 1 5 C0.67 5 0.34 5 0 5 C0 3.35 0 1.7 0 0 Z " fill="#000000" transform="translate(301,279)"/>
<path d="M0 0 C0.33 0 0.66 0 1 0 C1 1.65 1 3.3 1 5 C0.67 5 0.34 5 0 5 C0 3.35 0 1.7 0 0 Z " fill="#000000" transform="translate(98,270)"/>
<path d="M0 0 C0.33 0 0.66 0 1 0 C1 1.65 1 3.3 1 5 C0.67 5 0.34 5 0 5 C0 3.35 0 1.7 0 0 Z " fill="#000000" transform="translate(95,247)"/>
<path d="M0 0 C0.33 0 0.66 0 1 0 C1 1.65 1 3.3 1 5 C0.67 5 0.34 5 0 5 C0 3.35 0 1.7 0 0 Z " fill="#000000" transform="translate(86,179)"/>
<path d="M0 0 C1 4 1 4 1 4 Z " fill="#000000" transform="translate(392,431)"/>
<path d="M0 0 C1 4 1 4 1 4 Z " fill="#000000" transform="translate(393,423)"/>
<path d="M0 0 C1 4 1 4 1 4 Z " fill="#000000" transform="translate(118,423)"/>
<path d="M0 0 C1 4 1 4 1 4 Z " fill="#000000" transform="translate(395,408)"/>
<path d="M0 0 C1 4 1 4 1 4 Z " fill="#000000" transform="translate(116,408)"/>
<path d="M0 0 C1 4 1 4 1 4 Z " fill="#000000" transform="translate(396,400)"/>
<path d="M0 0 C1 4 1 4 1 4 Z " fill="#000000" transform="translate(115,400)"/>
<path d="M0 0 C1 4 1 4 1 4 Z " fill="#000000" transform="translate(398,385)"/>
<path d="M0 0 C1 4 1 4 1 4 Z " fill="#000000" transform="translate(113,385)"/>
<path d="M0 0 C1 4 1 4 1 4 Z " fill="#000000" transform="translate(112,377)"/>
<path d="M0 0 C1 4 1 4 1 4 Z " fill="#000000" transform="translate(400,370)"/>
<path d="M0 0 C1 4 1 4 1 4 Z " fill="#000000" transform="translate(401,362)"/>
<path d="M0 0 C1 4 1 4 1 4 Z " fill="#000000" transform="translate(110,362)"/>
<path d="M0 0 C1 4 1 4 1 4 Z " fill="#000000" transform="translate(402,355)"/>
<path d="M0 0 C1 4 1 4 1 4 Z " fill="#000000" transform="translate(403,347)"/>
<path d="M0 0 C1 4 1 4 1 4 Z " fill="#000000" transform="translate(108,347)"/>
<path d="M0 0 C1 4 1 4 1 4 Z " fill="#000000" transform="translate(107,339)"/>
<path d="M0 0 C1 4 1 4 1 4 Z " fill="#000000" transform="translate(405,332)"/>
<path d="M0 0 C1 4 1 4 1 4 Z " fill="#000000" transform="translate(106,332)"/>
<path d="M0 0 C4 1 4 1 4 1 Z " fill="#000000" transform="translate(322,331)"/>
<path d="M0 0 C1 4 1 4 1 4 Z " fill="#000000" transform="translate(294,326)"/>
<path d="M0 0 C1 4 1 4 1 4 Z " fill="#000000" transform="translate(105,324)"/>
<path d="M0 0 C1 4 1 4 1 4 Z " fill="#000000" transform="translate(408,309)"/>
<path d="M0 0 C1 4 1 4 1 4 Z " fill="#000000" transform="translate(103,309)"/>
<path d="M0 0 C1 4 1 4 1 4 Z " fill="#000000" transform="translate(411,286)"/>
<path d="M0 0 C1 4 1 4 1 4 Z " fill="#000000" transform="translate(100,286)"/>
<path d="M0 0 C1 4 1 4 1 4 Z " fill="#000000" transform="translate(413,271)"/>
<path d="M0 0 C1 4 1 4 1 4 Z " fill="#000000" transform="translate(414,263)"/>
<path d="M0 0 C1 4 1 4 1 4 Z " fill="#000000" transform="translate(97,263)"/>
<path d="M0 0 C1 4 1 4 1 4 Z " fill="#000000" transform="translate(416,248)"/>
<path d="M0 0 C1 4 1 4 1 4 Z " fill="#000000" transform="translate(418,233)"/>
<path d="M0 0 C1 4 1 4 1 4 Z " fill="#000000" transform="translate(93,233)"/>
<path d="M0 0 C1 4 1 4 1 4 Z " fill="#000000" transform="translate(419,225)"/>
<path d="M0 0 C1 4 1 4 1 4 Z " fill="#000000" transform="translate(92,225)"/>
<path d="M0 0 C1 4 1 4 1 4 Z " fill="#000000" transform="translate(421,210)"/>
<path d="M0 0 C1 4 1 4 1 4 Z " fill="#000000" transform="translate(90,210)"/>
<path d="M0 0 C1 4 1 4 1 4 Z " fill="#000000" transform="translate(422,202)"/>
<path d="M0 0 C1 4 1 4 1 4 Z " fill="#000000" transform="translate(89,202)"/>
<path d="M0 0 C1 4 1 4 1 4 Z " fill="#000000" transform="translate(424,187)"/>
<path d="M0 0 C1 4 1 4 1 4 Z " fill="#000000" transform="translate(426,172)"/>
<path d="M0 0 C1 4 1 4 1 4 Z " fill="#000000" transform="translate(85,172)"/>
<path d="M0 0 C1 4 1 4 1 4 Z " fill="#000000" transform="translate(425,78)"/>
<path d="M0 0 C1 4 1 4 1 4 Z " fill="#000000" transform="translate(425,73)"/>
<path d="M0 0 C3 1 3 1 3 1 Z " fill="#000000" transform="translate(354,470)"/>
<path d="M0 0 C3 1 3 1 3 1 Z " fill="#000000" transform="translate(361,468)"/>
<path d="" fill="#000000" transform="translate(0,0)"/>
<path d="" fill="#000000" transform="translate(0,0)"/>
<path d="" fill="#000000" transform="translate(0,0)"/>
<path d="" fill="#000000" transform="translate(0,0)"/>
<path d="" fill="#000000" transform="translate(0,0)"/>
<path d="M0 0 C3 1 3 1 3 1 Z " fill="#000000" transform="translate(207,390)"/>
<path d="" fill="#000000" transform="translate(0,0)"/>
<path d="" fill="#000000" transform="translate(0,0)"/>
<path d="" fill="#000000" transform="translate(0,0)"/>
<path d="" fill="#000000" transform="translate(0,0)"/>
<path d="" fill="#000000" transform="translate(0,0)"/>
<path d="" fill="#000000" transform="translate(0,0)"/>
<path d="" fill="#000000" transform="translate(0,0)"/>
<path d="" fill="#000000" transform="translate(0,0)"/>
<path d="" fill="#000000" transform="translate(0,0)"/>
<path d="" fill="#000000" transform="translate(0,0)"/>
<path d="" fill="#000000" transform="translate(0,0)"/>
<path d="" fill="#000000" transform="translate(0,0)"/>
<path d="" fill="#000000" transform="translate(0,0)"/>
<path d="" fill="#000000" transform="translate(0,0)"/>
<path d="" fill="#000000" transform="translate(0,0)"/>
<path d="" fill="#000000" transform="translate(0,0)"/>
<path d="" fill="#000000" transform="translate(0,0)"/>
<path d="" fill="#000000" transform="translate(0,0)"/>
<path d="M0 0 C3 1 3 1 3 1 Z " fill="#000000" transform="translate(225,187)"/>
<path d="M0 0 C3 1 3 1 3 1 Z " fill="#000000" transform="translate(213,187)"/>
<path d="M0 0 C3 1 3 1 3 1 Z " fill="#000000" transform="translate(219,186)"/>
<path d="M0 0 C3 1 3 1 3 1 Z " fill="#000000" transform="translate(388,110)"/>
<path d="M0 0 C3 1 3 1 3 1 Z " fill="#000000" transform="translate(122,110)"/>
<path d="M0 0 C2 1 2 1 2 1 Z " fill="#000000" transform="translate(156,470)"/>
<path d="M0 0 C2 1 2 1 2 1 Z " fill="#000000" transform="translate(359,469)"/>
<path d="M0 0 C2 1 2 1 2 1 Z " fill="#000000" transform="translate(152,469)"/>
<path d="M0 0 C2 1 2 1 2 1 Z " fill="#000000" transform="translate(149,468)"/>
<path d="M0 0 C2 1 2 1 2 1 Z " fill="#000000" transform="translate(364,467)"/>
<path d="M0 0 C2 1 2 1 2 1 Z " fill="#000000" transform="translate(146,467)"/>
<path d="M0 0 C2 1 2 1 2 1 Z " fill="#000000" transform="translate(144,466)"/>
<path d="M0 0 C2 1 2 1 2 1 Z " fill="#000000" transform="translate(142,465)"/>
<path d="M0 0 C2 1 2 1 2 1 Z " fill="#000000" transform="translate(370,464)"/>
<path d="" fill="#000000" transform="translate(0,0)"/>
<path d="" fill="#000000" transform="translate(0,0)"/>
<path d="" fill="#000000" transform="translate(0,0)"/>
<path d="M0 0 C2 1 2 1 2 1 Z " fill="#000000" transform="translate(203,389)"/>
<path d="M0 0 C2 1 2 1 2 1 Z " fill="#000000" transform="translate(320,388)"/>
<path d="M0 0 C2 1 2 1 2 1 Z " fill="#000000" transform="translate(200,388)"/>
<path d="M0 0 C2 1 2 1 2 1 Z " fill="#000000" transform="translate(323,387)"/>
<path d="M0 0 C2 1 2 1 2 1 Z " fill="#000000" transform="translate(198,387)"/>
<path d="M0 0 C2 1 2 1 2 1 Z " fill="#000000" transform="translate(194,385)"/>
<path d="" fill="#000000" transform="translate(0,0)"/>
<path d="" fill="#000000" transform="translate(0,0)"/>
<path d="" fill="#000000" transform="translate(0,0)"/>
<path d="" fill="#000000" transform="translate(0,0)"/>
<path d="" fill="#000000" transform="translate(0,0)"/>
<path d="M0 0 C2 1 2 1 2 1 Z " fill="#000000" transform="translate(214,309)"/>
<path d="M0 0 C2 1 2 1 2 1 Z " fill="#000000" transform="translate(212,308)"/>
<path d="" fill="#000000" transform="translate(0,0)"/>
<path d="M0 0 C2 1 2 1 2 1 Z " fill="#000000" transform="translate(210,307)"/>
<path d="M0 0 C2 1 2 1 2 1 Z " fill="#000000" transform="translate(206,305)"/>
<path d="" fill="#000000" transform="translate(0,0)"/>
<path d="" fill="#000000" transform="translate(0,0)"/>
<path d="" fill="#000000" transform="translate(0,0)"/>
<path d="" fill="#000000" transform="translate(0,0)"/>
<path d="M0 0 C2 1 2 1 2 1 Z " fill="#000000" transform="translate(309,265)"/>
<path d="M0 0 C2 1 2 1 2 1 Z " fill="#000000" transform="translate(139,265)"/>
<path d="M0 0 C2 1 2 1 2 1 Z " fill="#000000" transform="translate(312,263)"/>
<path d="M0 0 C2 1 2 1 2 1 Z " fill="#000000" transform="translate(136,263)"/>
<path d="M0 0 C2 1 2 1 2 1 Z " fill="#000000" transform="translate(133,261)"/>
<path d="M0 0 C2 1 2 1 2 1 Z " fill="#000000" transform="translate(320,258)"/>
<path d="M0 0 C2 1 2 1 2 1 Z " fill="#000000" transform="translate(221,258)"/>
<path d="M0 0 C2 1 2 1 2 1 Z " fill="#000000" transform="translate(208,258)"/>
<path d="M0 0 C2 1 2 1 2 1 Z " fill="#000000" transform="translate(323,256)"/>
<path d="M0 0 C2 1 2 1 2 1 Z " fill="#000000" transform="translate(204,256)"/>
<path d="M0 0 C2 1 2 1 2 1 Z " fill="#000000" transform="translate(202,255)"/>
<path d="M0 0 C2 1 2 1 2 1 Z " fill="#000000" transform="translate(342,253)"/>
<path d="M0 0 C2 1 2 1 2 1 Z " fill="#000000" transform="translate(329,253)"/>
<path d="M0 0 C2 1 2 1 2 1 Z " fill="#000000" transform="translate(195,251)"/>
<path d="M0 0 C2 1 2 1 2 1 Z " fill="#000000" transform="translate(193,250)"/>
<path d="M0 0 C2 1 2 1 2 1 Z " fill="#000000" transform="translate(255,249)"/>
<path d="M0 0 C2 1 2 1 2 1 Z " fill="#000000" transform="translate(258,247)"/>
<path d="M0 0 C2 1 2 1 2 1 Z " fill="#000000" transform="translate(186,246)"/>
<path d="M0 0 C2 1 2 1 2 1 Z " fill="#000000" transform="translate(261,245)"/>
<path d="M0 0 C2 1 2 1 2 1 Z " fill="#000000" transform="translate(264,243)"/>
<path d="M0 0 C2 1 2 1 2 1 Z " fill="#000000" transform="translate(267,241)"/>
<path d="" fill="#000000" transform="translate(0,0)"/>
<path d="M0 0 C2 1 2 1 2 1 Z " fill="#000000" transform="translate(330,204)"/>
<path d="M0 0 C2 1 2 1 2 1 Z " fill="#000000" transform="translate(332,203)"/>
<path d="M0 0 C2 1 2 1 2 1 Z " fill="#000000" transform="translate(334,202)"/>
<path d="M0 0 C2 1 2 1 2 1 Z " fill="#000000" transform="translate(229,188)"/>
<path d="M0 0 C2 1 2 1 2 1 Z " fill="#000000" transform="translate(210,188)"/>
<path d="M0 0 C2 1 2 1 2 1 Z " fill="#000000" transform="translate(300,183)"/>
<path d="" fill="#000000" transform="translate(0,0)"/>
<path d="" fill="#000000" transform="translate(0,0)"/>
<path d="" fill="#000000" transform="translate(0,0)"/>
<path d="" fill="#000000" transform="translate(0,0)"/>
<path d="" fill="#000000" transform="translate(0,0)"/>
<path d="" fill="#000000" transform="translate(0,0)"/>
<path d="M0 0 C2 1 2 1 2 1 Z " fill="#000000" transform="translate(399,114)"/>
<path d="M0 0 C2 1 2 1 2 1 Z " fill="#000000" transform="translate(397,113)"/>
<path d="M0 0 C2 1 2 1 2 1 Z " fill="#000000" transform="translate(392,111)"/>
<path d="M0 0 C2 1 2 1 2 1 Z " fill="#000000" transform="translate(102,98)"/>
<path d="M0 0 C2 1 2 1 2 1 Z " fill="#000000" transform="translate(411,97)"/>
<path d="M0 0 C2 1 2 1 2 1 Z " fill="#000000" transform="translate(413,96)"/>
<path d="M0 0 C2 1 2 1 2 1 Z " fill="#000000" transform="translate(100,57)"/>
<path d="M0 0 C2 1 2 1 2 1 Z " fill="#000000" transform="translate(408,56)"/>
<path d="M0 0 C2 1 2 1 2 1 Z " fill="#000000" transform="translate(103,56)"/>
<path d="M0 0 C2 1 2 1 2 1 Z " fill="#000000" transform="translate(282,42)"/>
<path d="M0 0 C2 1 2 1 2 1 Z " fill="#000000" transform="translate(228,42)"/>
<path d="M0 0 C2 1 2 1 2 1 Z " fill="#000000" transform="translate(279,41)"/>
<path d="M0 0 C2 1 2 1 2 1 Z " fill="#000000" transform="translate(231,41)"/>
<path d="" fill="#000000" transform="translate(0,0)"/>
<path d="" fill="#000000" transform="translate(0,0)"/>
<path d="" fill="#000000" transform="translate(0,0)"/>
<path d="" fill="#000000" transform="translate(0,0)"/>
<path d="" fill="#000000" transform="translate(0,0)"/>
<path d="" fill="#000000" transform="translate(0,0)"/>
<path d="" fill="#000000" transform="translate(0,0)"/>
<path d="" fill="#000000" transform="translate(0,0)"/>
<path d="" fill="#000000" transform="translate(0,0)"/>
<path d="" fill="#000000" transform="translate(0,0)"/>
<path d="" fill="#000000" transform="translate(0,0)"/>
<path d="" fill="#000000" transform="translate(0,0)"/>
<path d="" fill="#000000" transform="translate(0,0)"/>
<path d="" fill="#000000" transform="translate(0,0)"/>
<path d="" fill="#000000" transform="translate(0,0)"/>
<path d="" fill="#000000" transform="translate(0,0)"/>
<path d="" fill="#000000" transform="translate(0,0)"/>
<path d="" fill="#000000" transform="translate(0,0)"/>
<path d="" fill="#000000" transform="translate(0,0)"/>
<path d="" fill="#000000" transform="translate(0,0)"/>
<path d="" fill="#000000" transform="translate(0,0)"/>
<path d="" fill="#000000" transform="translate(0,0)"/>
<path d="" fill="#000000" transform="translate(0,0)"/>
<path d="" fill="#000000" transform="translate(0,0)"/>
<path d="" fill="#000000" transform="translate(0,0)"/>
<path d="" fill="#000000" transform="translate(0,0)"/>
<path d="" fill="#000000" transform="translate(0,0)"/>
<path d="" fill="#000000" transform="translate(0,0)"/>
<path d="" fill="#000000" transform="translate(0,0)"/>
<path d="" fill="#000000" transform="translate(0,0)"/>
<path d="" fill="#000000" transform="translate(0,0)"/>
<path d="" fill="#000000" transform="translate(0,0)"/>
<path d="" fill="#000000" transform="translate(0,0)"/>
<path d="" fill="#000000" transform="translate(0,0)"/>
<path d="" fill="#000000" transform="translate(0,0)"/>
<path d="" fill="#000000" transform="translate(0,0)"/>
<path d="" fill="#000000" transform="translate(0,0)"/>
<path d="" fill="#000000" transform="translate(0,0)"/>
<path d="" fill="#000000" transform="translate(0,0)"/>
<path d="" fill="#000000" transform="translate(0,0)"/>
<path d="" fill="#000000" transform="translate(0,0)"/>
<path d="" fill="#000000" transform="translate(0,0)"/>
<path d="" fill="#000000" transform="translate(0,0)"/>
<path d="" fill="#000000" transform="translate(0,0)"/>
<path d="" fill="#000000" transform="translate(0,0)"/>
<path d="" fill="#000000" transform="translate(0,0)"/>
<path d="" fill="#000000" transform="translate(0,0)"/>
<path d="" fill="#000000" transform="translate(0,0)"/>
<path d="" fill="#000000" transform="translate(0,0)"/>
<path d="" fill="#000000" transform="translate(0,0)"/>
<path d="" fill="#000000" transform="translate(0,0)"/>
<path d="" fill="#000000" transform="translate(0,0)"/>
<path d="" fill="#000000" transform="translate(0,0)"/>
<path d="" fill="#000000" transform="translate(0,0)"/>
<path d="" fill="#000000" transform="translate(0,0)"/>
<path d="" fill="#000000" transform="translate(0,0)"/>
<path d="" fill="#000000" transform="translate(0,0)"/>
<path d="" fill="#000000" transform="translate(0,0)"/>
<path d="" fill="#000000" transform="translate(0,0)"/>
<path d="" fill="#000000" transform="translate(0,0)"/>
<path d="" fill="#000000" transform="translate(0,0)"/>
<path d="" fill="#000000" transform="translate(0,0)"/>
<path d="" fill="#000000" transform="translate(0,0)"/>
<path d="" fill="#000000" transform="translate(0,0)"/>
<path d="" fill="#000000" transform="translate(0,0)"/>
<path d="" fill="#000000" transform="translate(0,0)"/>
<path d="" fill="#000000" transform="translate(0,0)"/>
<path d="" fill="#000000" transform="translate(0,0)"/>
<path d="" fill="#000000" transform="translate(0,0)"/>
<path d="" fill="#000000" transform="translate(0,0)"/>
<path d="" fill="#000000" transform="translate(0,0)"/>
<path d="" fill="#000000" transform="translate(0,0)"/>
<path d="" fill="#000000" transform="translate(0,0)"/>
<path d="" fill="#000000" transform="translate(0,0)"/>
<path d="" fill="#000000" transform="translate(0,0)"/>
<path d="" fill="#000000" transform="translate(0,0)"/>
<path d="" fill="#000000" transform="translate(0,0)"/>
<path d="" fill="#000000" transform="translate(0,0)"/>
<path d="" fill="#000000" transform="translate(0,0)"/>
<path d="" fill="#000000" transform="translate(0,0)"/>
<path d="" fill="#000000" transform="translate(0,0)"/>
<path d="" fill="#000000" transform="translate(0,0)"/>
<path d="" fill="#000000" transform="translate(0,0)"/>
<path d="" fill="#000000" transform="translate(0,0)"/>
<path d="" fill="#000000" transform="translate(0,0)"/>
<path d="" fill="#000000" transform="translate(0,0)"/>
<path d="" fill="#000000" transform="translate(0,0)"/>
<path d="" fill="#000000" transform="translate(0,0)"/>
<path d="" fill="#000000" transform="translate(0,0)"/>
<path d="" fill="#000000" transform="translate(0,0)"/>
<path d="" fill="#000000" transform="translate(0,0)"/>
<path d="" fill="#000000" transform="translate(0,0)"/>
<path d="" fill="#000000" transform="translate(0,0)"/>
<path d="" fill="#000000" transform="translate(0,0)"/>
<path d="" fill="#000000" transform="translate(0,0)"/>
<path d="" fill="#000000" transform="translate(0,0)"/>
<path d="" fill="#000000" transform="translate(0,0)"/>
<path d="" fill="#000000" transform="translate(0,0)"/>
<path d="" fill="#000000" transform="translate(0,0)"/>
<path d="" fill="#000000" transform="translate(0,0)"/>
<path d="" fill="#000000" transform="translate(0,0)"/>
<path d="" fill="#000000" transform="translate(0,0)"/>
<path d="" fill="#000000" transform="translate(0,0)"/>
<path d="" fill="#000000" transform="translate(0,0)"/>
<path d="" fill="#000000" transform="translate(0,0)"/>
<path d="" fill="#000000" transform="translate(0,0)"/>
<path d="" fill="#000000" transform="translate(0,0)"/>
<path d="" fill="#000000" transform="translate(0,0)"/>
<path d="" fill="#000000" transform="translate(0,0)"/>
<path d="" fill="#000000" transform="translate(0,0)"/>
<path d="" fill="#000000" transform="translate(0,0)"/>
<path d="" fill="#000000" transform="translate(0,0)"/>
<path d="" fill="#000000" transform="translate(0,0)"/>
<path d="" fill="#000000" transform="translate(0,0)"/>
<path d="" fill="#000000" transform="translate(0,0)"/>
<path d="" fill="#000000" transform="translate(0,0)"/>
<path d="" fill="#000000" transform="translate(0,0)"/>
<path d="" fill="#000000" transform="translate(0,0)"/>
<path d="" fill="#000000" transform="translate(0,0)"/>
<path d="" fill="#000000" transform="translate(0,0)"/>
<path d="" fill="#000000" transform="translate(0,0)"/>
<path d="" fill="#000000" transform="translate(0,0)"/>
<path d="" fill="#000000" transform="translate(0,0)"/>
<path d="" fill="#000000" transform="translate(0,0)"/>
<path d="" fill="#000000" transform="translate(0,0)"/>
<path d="" fill="#000000" transform="translate(0,0)"/>
<path d="" fill="#000000" transform="translate(0,0)"/>
<path d="" fill="#000000" transform="translate(0,0)"/>
<path d="" fill="#000000" transform="translate(0,0)"/>
<path d="" fill="#000000" transform="translate(0,0)"/>
<path d="" fill="#000000" transform="translate(0,0)"/>
<path d="" fill="#000000" transform="translate(0,0)"/>
<path d="" fill="#000000" transform="translate(0,0)"/>
<path d="" fill="#000000" transform="translate(0,0)"/>
<path d="" fill="#000000" transform="translate(0,0)"/>
<path d="" fill="#000000" transform="translate(0,0)"/>
<path d="" fill="#000000" transform="translate(0,0)"/>
<path d="" fill="#000000" transform="translate(0,0)"/>
<path d="" fill="#000000" transform="translate(0,0)"/>
<path d="" fill="#000000" transform="translate(0,0)"/>
<path d="" fill="#000000" transform="translate(0,0)"/>
<path d="" fill="#000000" transform="translate(0,0)"/>
<path d="" fill="#000000" transform="translate(0,0)"/>
<path d="" fill="#000000" transform="translate(0,0)"/>
<path d="" fill="#000000" transform="translate(0,0)"/>
<path d="" fill="#000000" transform="translate(0,0)"/>
<path d="" fill="#000000" transform="translate(0,0)"/>
<path d="" fill="#000000" transform="translate(0,0)"/>
<path d="" fill="#000000" transform="translate(0,0)"/>
<path d="" fill="#000000" transform="translate(0,0)"/>
<path d="" fill="#000000" transform="translate(0,0)"/>
<path d="" fill="#000000" transform="translate(0,0)"/>
<path d="" fill="#000000" transform="translate(0,0)"/>
<path d="" fill="#000000" transform="translate(0,0)"/>
<path d="" fill="#000000" transform="translate(0,0)"/>
<path d="" fill="#000000" transform="translate(0,0)"/>
<path d="" fill="#000000" transform="translate(0,0)"/>
<path d="" fill="#000000" transform="translate(0,0)"/>
<path d="" fill="#000000" transform="translate(0,0)"/>
<path d="" fill="#000000" transform="translate(0,0)"/>
<path d="" fill="#000000" transform="translate(0,0)"/>
<path d="" fill="#000000" transform="translate(0,0)"/>
<path d="" fill="#000000" transform="translate(0,0)"/>
<path d="" fill="#000000" transform="translate(0,0)"/>
<path d="" fill="#000000" transform="translate(0,0)"/>
<path d="" fill="#000000" transform="translate(0,0)"/>
<path d="" fill="#000000" transform="translate(0,0)"/>
<path d="" fill="#000000" transform="translate(0,0)"/>
<path d="" fill="#000000" transform="translate(0,0)"/>
<path d="" fill="#000000" transform="translate(0,0)"/>
<path d="" fill="#000000" transform="translate(0,0)"/>
<path d="" fill="#000000" transform="translate(0,0)"/>
<path d="" fill="#000000" transform="translate(0,0)"/>
<path d="" fill="#000000" transform="translate(0,0)"/>
<path d="" fill="#000000" transform="translate(0,0)"/>
<path d="" fill="#000000" transform="translate(0,0)"/>
<path d="" fill="#000000" transform="translate(0,0)"/>
<path d="" fill="#000000" transform="translate(0,0)"/>
<path d="" fill="#000000" transform="translate(0,0)"/>
<path d="" fill="#000000" transform="translate(0,0)"/>
<path d="" fill="#000000" transform="translate(0,0)"/>
<path d="" fill="#000000" transform="translate(0,0)"/>
<path d="" fill="#000000" transform="translate(0,0)"/>
<path d="" fill="#000000" transform="translate(0,0)"/>
<path d="" fill="#000000" transform="translate(0,0)"/>
<path d="" fill="#000000" transform="translate(0,0)"/>
<path d="" fill="#000000" transform="translate(0,0)"/>
<path d="" fill="#000000" transform="translate(0,0)"/>
<path d="" fill="#000000" transform="translate(0,0)"/>
<path d="" fill="#000000" transform="translate(0,0)"/>
<path d="" fill="#000000" transform="translate(0,0)"/>
<path d="" fill="#000000" transform="translate(0,0)"/>
<path d="" fill="#000000" transform="translate(0,0)"/>
<path d="" fill="#000000" transform="translate(0,0)"/>
<path d="" fill="#000000" transform="translate(0,0)"/>
<path d="" fill="#000000" transform="translate(0,0)"/>
<path d="" fill="#000000" transform="translate(0,0)"/>
<path d="" fill="#000000" transform="translate(0,0)"/>
<path d="" fill="#000000" transform="translate(0,0)"/>
<path d="" fill="#000000" transform="translate(0,0)"/>
<path d="" fill="#000000" transform="translate(0,0)"/>
<path d="" fill="#000000" transform="translate(0,0)"/>
<path d="" fill="#000000" transform="translate(0,0)"/>
<path d="" fill="#000000" transform="translate(0,0)"/>
<path d="" fill="#000000" transform="translate(0,0)"/>
<path d="" fill="#000000" transform="translate(0,0)"/>
<path d="" fill="#000000" transform="translate(0,0)"/>
<path d="" fill="#000000" transform="translate(0,0)"/>
<path d="" fill="#000000" transform="translate(0,0)"/>
<path d="" fill="#000000" transform="translate(0,0)"/>
<path d="" fill="#000000" transform="translate(0,0)"/>
<path d="" fill="#000000" transform="translate(0,0)"/>
<path d="" fill="#000000" transform="translate(0,0)"/>
<path d="" fill="#000000" transform="translate(0,0)"/>
<path d="" fill="#000000" transform="translate(0,0)"/>
<path d="" fill="#000000" transform="translate(0,0)"/>
<path d="" fill="#000000" transform="translate(0,0)"/>
<path d="" fill="#000000" transform="translate(0,0)"/>
<path d="" fill="#000000" transform="translate(0,0)"/>
<path d="" fill="#000000" transform="translate(0,0)"/>
<path d="" fill="#000000" transform="translate(0,0)"/>
<path d="" fill="#000000" transform="translate(0,0)"/>
<path d="" fill="#000000" transform="translate(0,0)"/>
<path d="" fill="#000000" transform="translate(0,0)"/>
<path d="" fill="#000000" transform="translate(0,0)"/>
<path d="" fill="#000000" transform="translate(0,0)"/>
<path d="" fill="#000000" transform="translate(0,0)"/>
<path d="" fill="#000000" transform="translate(0,0)"/>
<path d="" fill="#000000" transform="translate(0,0)"/>
<path d="" fill="#000000" transform="translate(0,0)"/>
<path d="" fill="#000000" transform="translate(0,0)"/>
<path d="" fill="#000000" transform="translate(0,0)"/>
<path d="" fill="#000000" transform="translate(0,0)"/>
<path d="" fill="#000000" transform="translate(0,0)"/>
<path d="" fill="#000000" transform="translate(0,0)"/>
<path d="" fill="#000000" transform="translate(0,0)"/>
<path d="" fill="#000000" transform="translate(0,0)"/>
<path d="" fill="#000000" transform="translate(0,0)"/>
<path d="" fill="#000000" transform="translate(0,0)"/>
<path d="" fill="#000000" transform="translate(0,0)"/>
<path d="" fill="#000000" transform="translate(0,0)"/>
<path d="" fill="#000000" transform="translate(0,0)"/>
<path d="" fill="#000000" transform="translate(0,0)"/>
<path d="" fill="#000000" transform="translate(0,0)"/>
<path d="" fill="#000000" transform="translate(0,0)"/>
<path d="" fill="#000000" transform="translate(0,0)"/>
<path d="" fill="#000000" transform="translate(0,0)"/>
<path d="" fill="#000000" transform="translate(0,0)"/>
<path d="" fill="#000000" transform="translate(0,0)"/>
<path d="" fill="#000000" transform="translate(0,0)"/>
<path d="" fill="#000000" transform="translate(0,0)"/>
<path d="" fill="#000000" transform="translate(0,0)"/>
<path d="" fill="#000000" transform="translate(0,0)"/>
<path d="" fill="#000000" transform="translate(0,0)"/>
<path d="" fill="#000000" transform="translate(0,0)"/>
<path d="" fill="#000000" transform="translate(0,0)"/>
<path d="" fill="#000000" transform="translate(0,0)"/>
<path d="" fill="#000000" transform="translate(0,0)"/>
<path d="" fill="#000000" transform="translate(0,0)"/>
<path d="" fill="#000000" transform="translate(0,0)"/>
<path d="" fill="#000000" transform="translate(0,0)"/>
<path d="" fill="#000000" transform="translate(0,0)"/>
<path d="" fill="#000000" transform="translate(0,0)"/>
<path d="" fill="#000000" transform="translate(0,0)"/>
<path d="" fill="#000000" transform="translate(0,0)"/>
<path d="" fill="#000000" transform="translate(0,0)"/>
<path d="" fill="#000000" transform="translate(0,0)"/>
<path d="" fill="#000000" transform="translate(0,0)"/>
<path d="" fill="#000000" transform="translate(0,0)"/>
<path d="" fill="#000000" transform="translate(0,0)"/>
<path d="" fill="#000000" transform="translate(0,0)"/>
<path d="" fill="#000000" transform="translate(0,0)"/>
<path d="" fill="#000000" transform="translate(0,0)"/>
<path d="" fill="#000000" transform="translate(0,0)"/>
<path d="" fill="#000000" transform="translate(0,0)"/>
<path d="" fill="#000000" transform="translate(0,0)"/>
<path d="" fill="#000000" transform="translate(0,0)"/>
<path d="" fill="#000000" transform="translate(0,0)"/>
<path d="" fill="#000000" transform="translate(0,0)"/>
<path d="" fill="#000000" transform="translate(0,0)"/>
<path d="" fill="#000000" transform="translate(0,0)"/>
<path d="" fill="#000000" transform="translate(0,0)"/>
<path d="" fill="#000000" transform="translate(0,0)"/>
<path d="" fill="#000000" transform="translate(0,0)"/>
<path d="" fill="#000000" transform="translate(0,0)"/>
<path d="" fill="#000000" transform="translate(0,0)"/>
<path d="" fill="#000000" transform="translate(0,0)"/>
<path d="" fill="#000000" transform="translate(0,0)"/>
<path d="" fill="#000000" transform="translate(0,0)"/>
<path d="" fill="#000000" transform="translate(0,0)"/>
<path d="" fill="#000000" transform="translate(0,0)"/>
<path d="" fill="#000000" transform="translate(0,0)"/>
<path d="" fill="#000000" transform="translate(0,0)"/>
<path d="" fill="#000000" transform="translate(0,0)"/>
<path d="" fill="#000000" transform="translate(0,0)"/>
<path d="" fill="#000000" transform="translate(0,0)"/>
<path d="" fill="#000000" transform="translate(0,0)"/>
<path d="" fill="#000000" transform="translate(0,0)"/>
<path d="" fill="#000000" transform="translate(0,0)"/>
<path d="" fill="#000000" transform="translate(0,0)"/>
<path d="" fill="#000000" transform="translate(0,0)"/>
<path d="" fill="#000000" transform="translate(0,0)"/>
<path d="" fill="#000000" transform="translate(0,0)"/>
<path d="" fill="#000000" transform="translate(0,0)"/>
<path d="" fill="#000000" transform="translate(0,0)"/>
<path d="" fill="#000000" transform="translate(0,0)"/>
<path d="" fill="#000000" transform="translate(0,0)"/>
<path d="" fill="#000000" transform="translate(0,0)"/>
<path d="" fill="#000000" transform="translate(0,0)"/>
<path d="" fill="#000000" transform="translate(0,0)"/>
<path d="" fill="#000000" transform="translate(0,0)"/>
<path d="" fill="#000000" transform="translate(0,0)"/>
<path d="" fill="#000000" transform="translate(0,0)"/>
<path d="" fill="#000000" transform="translate(0,0)"/>
<path d="" fill="#000000" transform="translate(0,0)"/>
<path d="" fill="#000000" transform="translate(0,0)"/>
<path d="" fill="#000000" transform="translate(0,0)"/>
<path d="" fill="#000000" transform="translate(0,0)"/>
<path d="" fill="#000000" transform="translate(0,0)"/>
<path d="" fill="#000000" transform="translate(0,0)"/>
<path d="" fill="#000000" transform="translate(0,0)"/>
<path d="" fill="#000000" transform="translate(0,0)"/>
<path d="" fill="#000000" transform="translate(0,0)"/>
<path d="" fill="#000000" transform="translate(0,0)"/>
<path d="" fill="#000000" transform="translate(0,0)"/>
<path d="" fill="#000000" transform="translate(0,0)"/>
<path d="" fill="#000000" transform="translate(0,0)"/>
<path d="" fill="#000000" transform="translate(0,0)"/>
<path d="" fill="#000000" transform="translate(0,0)"/>
<path d="" fill="#000000" transform="translate(0,0)"/>
<path d="" fill="#000000" transform="translate(0,0)"/>
<path d="" fill="#000000" transform="translate(0,0)"/>
<path d="" fill="#000000" transform="translate(0,0)"/>
<path d="" fill="#000000" transform="translate(0,0)"/>
<path d="" fill="#000000" transform="translate(0,0)"/>
<path d="" fill="#000000" transform="translate(0,0)"/>
<path d="" fill="#000000" transform="translate(0,0)"/>
<path d="" fill="#000000" transform="translate(0,0)"/>
<path d="" fill="#000000" transform="translate(0,0)"/>
<path d="" fill="#000000" transform="translate(0,0)"/>
<path d="" fill="#000000" transform="translate(0,0)"/>
<path d="" fill="#000000" transform="translate(0,0)"/>
<path d="" fill="#000000" transform="translate(0,0)"/>
<path d="" fill="#000000" transform="translate(0,0)"/>
<path d="" fill="#000000" transform="translate(0,0)"/>
<path d="" fill="#000000" transform="translate(0,0)"/>
<path d="" fill="#000000" transform="translate(0,0)"/>
<path d="" fill="#000000" transform="translate(0,0)"/>
<path d="" fill="#000000" transform="translate(0,0)"/>
<path d="" fill="#000000" transform="translate(0,0)"/>
<path d="" fill="#000000" transform="translate(0,0)"/>
<path d="" fill="#000000" transform="translate(0,0)"/>
<path d="" fill="#000000" transform="translate(0,0)"/>
<path d="" fill="#000000" transform="translate(0,0)"/>
<path d="" fill="#000000" transform="translate(0,0)"/>
<path d="" fill="#000000" transform="translate(0,0)"/>
<path d="" fill="#000000" transform="translate(0,0)"/>
<path d="" fill="#000000" transform="translate(0,0)"/>
<path d="" fill="#000000" transform="translate(0,0)"/>
<path d="" fill="#000000" transform="translate(0,0)"/>
<path d="" fill="#000000" transform="translate(0,0)"/>
<path d="" fill="#000000" transform="translate(0,0)"/>
<path d="" fill="#000000" transform="translate(0,0)"/>
<path d="" fill="#000000" transform="translate(0,0)"/>
<path d="" fill="#000000" transform="translate(0,0)"/>
<path d="" fill="#000000" transform="translate(0,0)"/>
<path d="" fill="#000000" transform="translate(0,0)"/>
<path d="" fill="#000000" transform="translate(0,0)"/>
<path d="" fill="#000000" transform="translate(0,0)"/>
<path d="" fill="#000000" transform="translate(0,0)"/>
<path d="" fill="#000000" transform="translate(0,0)"/>
<path d="" fill="#000000" transform="translate(0,0)"/>
<path d="" fill="#000000" transform="translate(0,0)"/>
<path d="" fill="#000000" transform="translate(0,0)"/>
<path d="" fill="#000000" transform="translate(0,0)"/>
<path d="" fill="#000000" transform="translate(0,0)"/>
<path d="" fill="#000000" transform="translate(0,0)"/>
<path d="" fill="#000000" transform="translate(0,0)"/>
<path d="" fill="#000000" transform="translate(0,0)"/>
<path d="" fill="#000000" transform="translate(0,0)"/>
<path d="" fill="#000000" transform="translate(0,0)"/>
<path d="" fill="#000000" transform="translate(0,0)"/>
<path d="" fill="#000000" transform="translate(0,0)"/>
<path d="" fill="#000000" transform="translate(0,0)"/>
<path d="" fill="#000000" transform="translate(0,0)"/>
<path d="" fill="#000000" transform="translate(0,0)"/>
<path d="" fill="#000000" transform="translate(0,0)"/>
<path d="" fill="#000000" transform="translate(0,0)"/>
<path d="" fill="#000000" transform="translate(0,0)"/>
<path d="" fill="#000000" transform="translate(0,0)"/>
<path d="" fill="#000000" transform="translate(0,0)"/>
<path d="" fill="#000000" transform="translate(0,0)"/>
<path d="" fill="#000000" transform="translate(0,0)"/>
<path d="" fill="#000000" transform="translate(0,0)"/>
<path d="" fill="#000000" transform="translate(0,0)"/>
<path d="" fill="#000000" transform="translate(0,0)"/>
<path d="" fill="#000000" transform="translate(0,0)"/>
<path d="" fill="#000000" transform="translate(0,0)"/>
<path d="" fill="#000000" transform="translate(0,0)"/>
<path d="" fill="#000000" transform="translate(0,0)"/>
<path d="" fill="#000000" transform="translate(0,0)"/>
<path d="" fill="#000000" transform="translate(0,0)"/>
<path d="" fill="#000000" transform="translate(0,0)"/>
<path d="" fill="#000000" transform="translate(0,0)"/>
<path d="" fill="#000000" transform="translate(0,0)"/>
<path d="" fill="#000000" transform="translate(0,0)"/>
<path d="" fill="#000000" transform="translate(0,0)"/>
<path d="" fill="#000000" transform="translate(0,0)"/>
<path d="" fill="#000000" transform="translate(0,0)"/>
<path d="" fill="#000000" transform="translate(0,0)"/>
<path d="" fill="#000000" transform="translate(0,0)"/>
<path d="" fill="#000000" transform="translate(0,0)"/>
<path d="" fill="#000000" transform="translate(0,0)"/>
<path d="" fill="#000000" transform="translate(0,0)"/>
<path d="" fill="#000000" transform="translate(0,0)"/>
<path d="" fill="#000000" transform="translate(0,0)"/>
<path d="" fill="#000000" transform="translate(0,0)"/>
<path d="" fill="#000000" transform="translate(0,0)"/>
<path d="" fill="#000000" transform="translate(0,0)"/>
<path d="" fill="#000000" transform="translate(0,0)"/>
<path d="" fill="#000000" transform="translate(0,0)"/>
<path d="" fill="#000000" transform="translate(0,0)"/>
<path d="" fill="#000000" transform="translate(0,0)"/>
<path d="" fill="#000000" transform="translate(0,0)"/>
<path d="" fill="#000000" transform="translate(0,0)"/>
<path d="" fill="#000000" transform="translate(0,0)"/>
<path d="" fill="#000000" transform="translate(0,0)"/>
<path d="" fill="#000000" transform="translate(0,0)"/>
<path d="" fill="#000000" transform="translate(0,0)"/>
<path d="" fill="#000000" transform="translate(0,0)"/>
<path d="" fill="#000000" transform="translate(0,0)"/>
<path d="" fill="#000000" transform="translate(0,0)"/>
<path d="" fill="#000000" transform="translate(0,0)"/>
<path d="" fill="#000000" transform="translate(0,0)"/>
<path d="" fill="#000000" transform="translate(0,0)"/>
<path d="" fill="#000000" transform="translate(0,0)"/>
<path d="" fill="#000000" transform="translate(0,0)"/>
<path d="" fill="#000000" transform="translate(0,0)"/>
<path d="" fill="#000000" transform="translate(0,0)"/>
<path d="" fill="#000000" transform="translate(0,0)"/>
<path d="" fill="#000000" transform="translate(0,0)"/>
<path d="" fill="#000000" transform="translate(0,0)"/>
<path d="" fill="#000000" transform="translate(0,0)"/>
<path d="" fill="#000000" transform="translate(0,0)"/>
<path d="" fill="#000000" transform="translate(0,0)"/>
<path d="" fill="#000000" transform="translate(0,0)"/>
<path d="" fill="#000000" transform="translate(0,0)"/>
<path d="" fill="#000000" transform="translate(0,0)"/>
<path d="" fill="#000000" transform="translate(0,0)"/>
<path d="" fill="#000000" transform="translate(0,0)"/>
<path d="" fill="#000000" transform="translate(0,0)"/>
<path d="" fill="#000000" transform="translate(0,0)"/>
<path d="" fill="#000000" transform="translate(0,0)"/>
<path d="" fill="#000000" transform="translate(0,0)"/>
<path d="" fill="#000000" transform="translate(0,0)"/>
<path d="" fill="#000000" transform="translate(0,0)"/>
<path d="" fill="#000000" transform="translate(0,0)"/>
<path d="" fill="#000000" transform="translate(0,0)"/>
<path d="" fill="#000000" transform="translate(0,0)"/>
<path d="" fill="#000000" transform="translate(0,0)"/>
<path d="" fill="#000000" transform="translate(0,0)"/>
<path d="" fill="#000000" transform="translate(0,0)"/>
<path d="" fill="#000000" transform="translate(0,0)"/>
<path d="" fill="#000000" transform="translate(0,0)"/>
<path d="" fill="#000000" transform="translate(0,0)"/>
<path d="" fill="#000000" transform="translate(0,0)"/>
<path d="" fill="#000000" transform="translate(0,0)"/>
<path d="" fill="#000000" transform="translate(0,0)"/>
<path d="" fill="#000000" transform="translate(0,0)"/>
<path d="" fill="#000000" transform="translate(0,0)"/>
<path d="" fill="#000000" transform="translate(0,0)"/>
<path d="" fill="#000000" transform="translate(0,0)"/>
<path d="" fill="#000000" transform="translate(0,0)"/>
<path d="" fill="#000000" transform="translate(0,0)"/>
<path d="" fill="#000000" transform="translate(0,0)"/>
<path d="" fill="#000000" transform="translate(0,0)"/>
<path d="" fill="#000000" transform="translate(0,0)"/>
</svg>
