<?xml version="1.0" standalone="no"?>
<!DOCTYPE svg PUBLIC "-//W3C//DTD SVG 20010904//EN"
 "http://www.w3.org/TR/2001/REC-SVG-20010904/DTD/svg10.dtd">
<svg version="1.0" xmlns="http://www.w3.org/2000/svg"
 width="1280.000000pt" height="640.000000pt" viewBox="0 0 1280.000000 640.000000"
 preserveAspectRatio="xMidYMid meet">
<metadata>
Created by potrace 1.15, written by Peter Selinger 2001-2017
</metadata>
<g transform="translate(0.000000,640.000000) scale(0.100000,-0.100000)"
fill="#000000" stroke="none">
<path d="M3410 4352 l0 -1492 4685 0 4685 0 0 1485 0 1485 -1368 0 c-753 0
-2861 3 -4685 7 l-3317 6 0 -1491z"/>
<path d="M657 5033 c-14 -38 -144 -383 -287 -768 -144 -385 -286 -766 -316
-846 l-54 -146 2 -904 3 -904 22 -41 c24 -44 72 -90 110 -105 12 -4 122 -9
244 -9 l222 -1 43 131 c122 371 340 644 619 776 120 57 189 74 320 81 362 18
680 -185 909 -580 l28 -47 618 0 618 0 58 82 c168 241 409 416 671 485 82 21
121 26 233 26 140 1 216 -12 330 -54 316 -117 540 -433 578 -815 l7 -69 174
-3 174 -2 -6 82 c-23 286 -215 685 -451 935 -144 153 -271 237 -411 273 -76
19 -110 20 -1316 20 l-1238 0 6 1228 6 1229 -174 6 c-96 4 -521 7 -945 7
l-771 0 -26 -67z"/>
<path d="M9433 2619 c-320 -47 -681 -442 -852 -932 -36 -104 -71 -266 -71
-331 l0 -46 172 2 172 3 13 95 c48 371 245 651 560 797 136 63 246 86 418 86
162 1 231 -11 354 -60 129 -51 281 -170 281 -220 l0 -23 175 0 175 0 0 24 c0
15 19 42 53 75 218 217 634 271 978 126 305 -128 512 -399 573 -750 9 -49 16
-105 16 -122 l0 -33 175 0 175 0 0 33 c0 64 -32 214 -70 327 -95 285 -247 530
-447 720 -112 106 -207 167 -321 208 l-77 27 -1195 1 c-667 1 -1222 -2 -1257
-7z"/>
<path d="M1445 2095 c-271 -59 -489 -265 -576 -545 -33 -107 -34 -301 -1 -413
81 -281 296 -484 583 -552 81 -19 234 -19 321 0 389 82 661 460 608 845 -26
192 -93 325 -230 461 -71 71 -103 94 -181 133 -128 63 -225 86 -358 85 -58 0
-133 -6 -166 -14z"/>
<path d="M4478 2090 c-138 -34 -268 -110 -372 -218 -64 -65 -100 -120 -141
-207 -54 -114 -69 -184 -69 -325 0 -149 14 -213 81 -350 40 -81 61 -109 142
-190 106 -106 192 -158 331 -202 65 -20 95 -23 220 -22 130 0 153 3 225 27
424 142 643 582 496 997 -36 102 -81 177 -159 261 -110 119 -234 193 -385 229
-107 26 -263 26 -369 0z"/>
<path d="M9590 2089 c-283 -74 -499 -294 -565 -574 -21 -93 -21 -250 0 -345
95 -418 516 -680 931 -580 246 58 440 225 537 460 182 438 -87 947 -551 1045
-97 21 -261 18 -352 -6z"/>
<path d="M11301 2090 c-40 -9 -116 -39 -169 -65 -79 -39 -111 -63 -182 -134
-215 -213 -286 -484 -204 -770 36 -125 94 -221 194 -322 144 -146 302 -217
506 -226 150 -8 247 12 384 79 93 45 115 61 200 147 108 109 163 201 201 336
33 115 33 297 1 410 -80 278 -307 492 -583 550 -95 20 -256 18 -348 -5z"/>
</g>
</svg>
